<?xml version="1.0" standalone="no"?>
<!DOCTYPE svg PUBLIC "-//W3C//DTD SVG 20010904//EN"
 "http://www.w3.org/TR/2001/REC-SVG-20010904/DTD/svg10.dtd">
<svg version="1.0" xmlns="http://www.w3.org/2000/svg"
 width="1000.000000pt" height="1000.000000pt" viewBox="0 0 1000.000000 1000.000000"
 preserveAspectRatio="xMidYMid meet">

<g transform="translate(0.000000,1000.000000) scale(0.100000,-0.100000)"
fill="#000000" stroke="none">
<path d="M0 5000 l0 -5000 5000 0 5000 0 0 5000 0 5000 -5000 0 -5000 0 0
-5000z m6198 686 c212 -84 254 -113 299 -204 23 -46 28 -70 28 -127 0 -65 -7
-86 -97 -313 -54 -133 -98 -246 -98 -251 0 -4 21 -23 48 -41 63 -45 260 -238
329 -322 54 -66 55 -67 81 -54 15 8 92 41 172 75 80 34 176 76 213 93 171 76
336 29 414 -118 70 -134 146 -328 150 -389 10 -120 -59 -231 -177 -286 -30
-14 -143 -64 -250 -110 -107 -45 -197 -84 -199 -85 -1 -2 2 -41 8 -88 13 -95
16 -350 5 -455 l-6 -68 256 -103 c252 -101 257 -103 306 -157 59 -64 85 -137
77 -217 -4 -49 -93 -288 -143 -387 -32 -65 -105 -126 -172 -145 -93 -27 -141
-17 -410 91 l-243 98 -16 -23 c-75 -107 -220 -260 -352 -371 l-55 -45 104
-240 c96 -221 104 -245 108 -315 8 -151 -52 -227 -249 -315 -201 -91 -242
-104 -317 -104 -52 0 -80 6 -118 25 -94 47 -116 80 -233 352 -90 208 -110 248
-127 246 -212 -22 -278 -25 -404 -19 -80 3 -154 7 -165 8 -16 3 -33 -33 -120
-246 -113 -281 -138 -320 -234 -365 -98 -45 -144 -39 -365 49 -215 86 -254
112 -297 204 -22 47 -29 76 -29 123 0 55 11 90 96 305 53 134 98 248 101 254
2 6 -21 30 -52 53 -105 79 -220 189 -298 284 l-79 96 -76 -33 c-43 -18 -153
-65 -245 -105 -181 -78 -246 -93 -322 -72 -56 15 -127 62 -160 105 -33 43
-160 336 -175 401 -13 58 -4 117 27 180 48 97 77 116 366 240 l228 98 -8 81
c-10 97 -10 448 -1 492 l7 32 -245 97 c-135 54 -262 110 -283 125 -76 55 -133
190 -117 274 3 17 39 114 78 215 61 153 80 191 114 227 65 66 114 87 209 88
78 0 85 -2 321 -97 133 -53 244 -97 247 -97 3 0 31 33 63 73 82 102 196 219
284 290 41 33 76 61 78 62 1 1 -45 112 -104 246 -118 273 -128 316 -100 413
14 46 29 70 74 115 51 52 74 65 227 131 164 72 173 74 250 75 93 0 148 -22
210 -83 44 -44 66 -86 175 -345 l85 -199 35 6 c129 21 304 28 430 17 74 -6
137 -8 141 -4 4 5 44 100 88 213 121 307 133 327 218 377 109 63 162 59 391
-31z"/>
<path d="M5135 4393 c-284 -22 -547 -144 -745 -343 -338 -340 -433 -856 -240
-1301 127 -293 382 -530 681 -632 128 -44 198 -58 339 -64 316 -14 589 79 821
278 l57 48 143 3 144 3 83 145 c46 80 126 217 177 305 51 88 142 246 202 350
60 105 145 251 188 325 43 74 98 169 121 210 l43 75 -449 3 -449 2 -48 72
c-61 90 -185 223 -272 288 -87 67 -284 164 -394 195 -49 14 -136 29 -195 35
-104 10 -124 10 -207 3z"/>
</g>
</svg>
